<svg width="16" height="16" viewBox="0 0 16 16" fill="none" xmlns="http://www.w3.org/2000/svg">
<path fill-rule="evenodd" clip-rule="evenodd" d="M11.334 4.6665V3.33317C11.334 2.96517 11.6327 2.6665 12.0007 2.6665H13.334C13.702 2.6665 14.0007 2.96517 14.0007 3.33317V4.6665" fill="#ECF8FD"/>
<path fill-rule="evenodd" clip-rule="evenodd" d="M2 4.6665V3.33317C2 2.96517 2.29867 2.6665 2.66667 2.6665H4C4.368 2.6665 4.66667 2.96517 4.66667 3.33317V4.6665" fill="#ECF8FD"/>
<path fill-rule="evenodd" clip-rule="evenodd" d="M14.0007 4.66634H11.334L10.196 3.52834C10.0713 3.40301 9.90132 3.33301 9.72465 3.33301H6.27665C6.09998 3.33301 5.93065 3.40301 5.80532 3.52834L4.66732 4.66634H2.00065C1.63265 4.66634 1.33398 4.96501 1.33398 5.33301V11.9997C1.33398 12.7363 1.93065 13.333 2.66732 13.333H13.334C14.0707 13.333 14.6673 12.7363 14.6673 11.9997V5.33301C14.6673 4.96501 14.3687 4.66634 14.0007 4.66634ZM12.084 7.6665C12.084 7.25229 11.7482 6.9165 11.334 6.9165C10.9198 6.9165 10.584 7.25229 10.584 7.6665V7.9165H10.334C9.91977 7.9165 9.58398 8.25229 9.58398 8.6665C9.58398 9.08072 9.91977 9.4165 10.334 9.4165H10.584V9.6665C10.584 10.0807 10.9198 10.4165 11.334 10.4165C11.7482 10.4165 12.084 10.0807 12.084 9.6665V9.4165H12.334C12.7482 9.4165 13.084 9.08072 13.084 8.6665C13.084 8.25229 12.7482 7.9165 12.334 7.9165H12.084V7.6665ZM2.91797 8.6665C2.91797 8.25229 3.25376 7.9165 3.66797 7.9165H5.66797C6.08218 7.9165 6.41797 8.25229 6.41797 8.6665C6.41797 9.08072 6.08218 9.4165 5.66797 9.4165H3.66797C3.25376 9.4165 2.91797 9.08072 2.91797 8.6665Z" fill="#ECF8FD"/>
</svg>
