<svg width="16" height="16" viewBox="0 0 16 16" fill="none" xmlns="http://www.w3.org/2000/svg">
<path fill-rule="evenodd" clip-rule="evenodd" d="M13.6666 6.97768C13.6666 5.47941 13.0692 4.04297 12.0069 2.9865L11.9879 2.96776C9.76842 0.781214 6.20216 0.789574 3.99294 2.9865C2.93057 4.04299 2.33324 5.47943 2.33325 6.9777C2.33326 8.47596 2.9306 9.9124 3.99298 10.9689L6.33884 13.3055C6.78115 13.7446 7.37458 14 8 14C8.59573 14 9.19141 13.7732 9.64659 13.3198L12.0069 10.9689C13.0692 9.91239 13.6666 8.47595 13.6666 6.97768ZM7.46449 4.88577L6.32163 5.9524C6.11829 6.14217 5.99991 6.42951 5.99992 6.73331V8.66665C5.99992 9.03485 6.25576 9.33332 6.57135 9.33332H9.42849C9.74408 9.33332 9.99992 9.03485 9.99992 8.66665V6.73331C9.99992 6.42951 9.88155 6.14217 9.6782 5.9524L8.53535 4.88577C8.22231 4.59362 7.77753 4.59362 7.46449 4.88577Z" fill="#ECF8FD"/>
</svg>
