<svg width="16" height="16" viewBox="0 0 16 16" fill="none" xmlns="http://www.w3.org/2000/svg">
<path fill-rule="evenodd" clip-rule="evenodd" d="M8.32278 9.14797L11.8963 13.3009C12.1545 13.6013 11.8955 14.0582 11.5039 13.9939L8 13.4117L4.49612 13.993C4.10454 14.0582 3.84547 13.6004 4.10369 13.3L7.67722 9.14712C7.8471 8.95082 8.1529 8.95082 8.32278 9.14797Z" fill="#ECF8FD"/>
<path d="M4.97008 9.37335C4.77941 8.95335 4.66675 8.49135 4.66675 8.00002C4.66675 6.15935 6.15941 4.66669 8.00008 4.66669C9.84075 4.66669 11.3334 6.15935 11.3334 8.00002C11.3334 8.49135 11.2207 8.95335 11.0301 9.37335" stroke="#ECF8FD" stroke-width="1.5" stroke-linecap="round" stroke-linejoin="round"/>
<path d="M12.9906 11.3334C14.63 8.88469 14.2753 5.49669 11.9226 3.45669C9.70731 1.53535 6.29265 1.53535 4.07731 3.45669C1.72465 5.49669 1.36998 8.88469 3.00931 11.3334" stroke="#ECF8FD" stroke-width="1.5" stroke-linecap="round" stroke-linejoin="round"/>
</svg>
