<svg width="16" height="16" viewBox="0 0 16 16" fill="none" xmlns="http://www.w3.org/2000/svg">
<path d="M14.6666 6L12.92 6.66667" stroke="#ECF8FD" stroke-width="1.5" stroke-linecap="round" stroke-linejoin="round"/>
<path d="M3.08665 6.66667L1.33331 6" stroke="#ECF8FD" stroke-width="1.5" stroke-linecap="round" stroke-linejoin="round"/>
<path fill-rule="evenodd" clip-rule="evenodd" d="M12.3606 3.99208L12.9199 6.66675H3.08527L3.71927 3.95408C3.89527 3.20008 4.56793 2.66675 5.34193 2.66675H10.7286C11.5179 2.66675 12.1986 3.22008 12.3606 3.99208ZM6.10483 4.00024C5.16304 4.00024 4.99933 4.44796 4.99933 5.00024C4.99933 5.55253 5.16304 6.00024 6.10483 6.00024H9.89431C10.8361 6.00024 10.9993 5.55253 10.9993 5.00024C10.9993 4.44796 10.8361 4.00024 9.89431 4.00024H6.10483Z" fill="#ECF8FD"/>
<path fill-rule="evenodd" clip-rule="evenodd" d="M2.16665 13.3334H3.66665C4.21865 13.3334 4.66665 12.8854 4.66665 12.3334V11.6667H11.3333V12.3334C11.3333 12.8854 11.7813 13.3334 12.3333 13.3334H13.8333C14.2933 13.3334 14.6666 12.9601 14.6666 12.5001V8.66675C14.6666 7.56208 13.7713 6.66675 12.6666 6.66675H3.33331C2.22865 6.66675 1.33331 7.56208 1.33331 8.66675V12.5001C1.33331 12.9601 1.70665 13.3334 2.16665 13.3334ZM9.74933 9.33374C9.74933 8.91953 10.0851 8.58374 10.4993 8.58374H12.166C12.5802 8.58374 12.916 8.91953 12.916 9.33374C12.916 9.74795 12.5802 10.0837 12.166 10.0837H10.4993C10.0851 10.0837 9.74933 9.74795 9.74933 9.33374ZM3.83331 8.58374C3.4191 8.58374 3.08331 8.91953 3.08331 9.33374C3.08331 9.74795 3.4191 10.0837 3.83331 10.0837H5.49998C5.91419 10.0837 6.24998 9.74795 6.24998 9.33374C6.24998 8.91953 5.91419 8.58374 5.49998 8.58374H3.83331Z" fill="#ECF8FD"/>
</svg>
