<svg width="16" height="43" viewBox="0 0 16 43" fill="none" xmlns="http://www.w3.org/2000/svg">
<path fill-rule="evenodd" clip-rule="evenodd" d="M14.0134 34.6779C14.0134 37.993 11.326 40.6804 8.01086 40.6804C4.69577 40.6804 2.00836 37.993 2.00836 34.6779C2.00836 31.3628 4.69577 28.6754 8.01086 28.6754C11.326 28.6754 14.0134 31.3628 14.0134 34.6779ZM7.60992 30.5929C8.02414 30.5929 8.35992 30.9286 8.35992 31.3429V34.3297H10.7112C11.1254 34.3297 11.4612 34.6655 11.4612 35.0797C11.4612 35.4939 11.1254 35.8297 10.7112 35.8297H7.60992C7.19571 35.8297 6.85992 35.4939 6.85992 35.0797C6.85992 35.0796 6.85992 35.0795 6.85992 35.0795C6.85992 35.0794 6.85992 35.0793 6.85992 35.0792V31.3429C6.85992 30.9286 7.19571 30.5929 7.60992 30.5929Z" fill="#ECF8FD"/>
<path fill-rule="evenodd" clip-rule="evenodd" d="M9.2833 7.33739C9.26547 7.51409 9.40419 7.6675 9.58178 7.6675H12.3607C12.6149 7.6675 12.7539 7.96373 12.5915 8.15921L6.71518 15.2324C6.52511 15.4612 6.15381 15.3037 6.18621 15.008L6.71354 10.1963C6.733 10.0188 6.59395 9.86364 6.41533 9.86364H3.61495C3.36503 9.86364 3.22468 9.57595 3.37852 9.37898L9.28338 1.81834C9.46852 1.58128 9.84848 1.73383 9.8183 2.0331L9.2833 7.33739Z" fill="#ECF8FD"/>
</svg>
