<svg width="16" height="16" viewBox="0 0 16 16" fill="none" xmlns="http://www.w3.org/2000/svg">
<path fill-rule="evenodd" clip-rule="evenodd" d="M6.69869 9.24602C5.91869 8.46602 5.33069 7.59269 4.94003 6.70669C4.85736 6.51935 4.90603 6.30002 5.05069 6.15535L5.59669 5.60935C6.04403 5.16202 6.04403 4.52935 5.65336 4.13869L4.87069 3.35669C4.35003 2.83602 3.50603 2.83602 2.98536 3.35669L2.55069 3.79069C2.05669 4.28469 1.85069 4.99735 1.98403 5.70402C2.31336 7.44602 3.32536 9.35335 4.95803 10.986C6.59069 12.6187 8.49803 13.6307 10.24 13.96C10.9467 14.0934 11.6594 13.8874 12.1534 13.3934L12.5874 12.9594C13.108 12.4387 13.108 11.5947 12.5874 11.074L11.8054 10.292C11.4147 9.90135 10.7814 9.90135 10.3914 10.292L9.78936 10.8947C9.64469 11.0394 9.42536 11.088 9.23803 11.0054C8.35203 10.614 7.47869 10.0254 6.69869 9.24602Z" fill="#ECF8FD"/>
<path d="M8.61336 3.44666V1.88666" stroke="#ECF8FD" stroke-width="1.5" stroke-linecap="round" stroke-linejoin="round"/>
<path d="M11.3933 4.54664L12.4933 3.45331" stroke="#ECF8FD" stroke-width="1.5" stroke-linecap="round" stroke-linejoin="round"/>
<path d="M12.5 7.33333H14.0533" stroke="#ECF8FD" stroke-width="1.5" stroke-linecap="round" stroke-linejoin="round"/>
</svg>
