<svg width="16" height="16" viewBox="0 0 16 16" fill="none" xmlns="http://www.w3.org/2000/svg">
<path opacity="0.6" fill-rule="evenodd" clip-rule="evenodd" d="M10.2073 14.2967C11 14.0174 11.7233 13.592 12.3467 13.0534C12.688 12.7587 12.6193 12.208 12.2293 11.982L10.3353 10.8887C9.89066 10.632 9.33466 10.9527 9.33466 11.4667V13.66C9.33466 14.1127 9.77999 14.4474 10.2073 14.2967Z" fill="#ECF8FD"/>
<path fill-rule="evenodd" clip-rule="evenodd" d="M5.79335 1.70334C5.00002 1.98201 4.27668 2.40801 3.65335 2.94667C3.31202 3.24134 3.38068 3.79201 3.77135 4.01734L5.66535 5.11067C6.10935 5.36801 6.66535 5.04667 6.66535 4.53334V2.34001C6.66535 1.88734 6.22002 1.55267 5.79335 1.70334Z" fill="#ECF8FD"/>
<path opacity="0.4" d="M12.1681 8.00041L13.8366 7.03723C13.9431 7.67186 13.9478 8.32385 13.8426 8.96727L12.1681 8.00041ZM12.0436 8.0723L12.0436 8.07228L12.0436 8.0723Z" stroke="#ECF8FD" stroke-width="1.5" stroke-linecap="round" stroke-linejoin="round"/>
<path fill-rule="evenodd" clip-rule="evenodd" d="M1.44333 6.76256C1.28866 7.58856 1.296 8.4279 1.45066 9.23723C1.53533 9.68056 2.04666 9.89656 2.43733 9.67056L4.33133 8.57723C4.776 8.32056 4.776 7.67856 4.33133 7.4219L2.43133 6.32523C2.03933 6.09923 1.52666 6.3179 1.44333 6.76256Z" fill="#ECF8FD"/>
<path fill-rule="evenodd" clip-rule="evenodd" d="M12.35 2.93992C11.712 2.39258 10.9813 1.97925 10.2033 1.70858C9.77732 1.56058 9.33466 1.89525 9.33466 2.34592V4.53258C9.33466 5.04592 9.89066 5.36725 10.3353 5.11058L12.2347 4.01392C12.6267 3.78792 12.6933 3.23458 12.35 2.93992Z" fill="#ECF8FD"/>
<path opacity="0.8" fill-rule="evenodd" clip-rule="evenodd" d="M3.65002 13.06C4.28802 13.6073 5.01869 14.0207 5.79669 14.2913C6.22269 14.4393 6.66535 14.1047 6.66535 13.654V11.4673C6.66535 10.954 6.10935 10.6327 5.66469 10.8893L3.76535 11.986C3.37335 12.212 3.30669 12.7653 3.65002 13.06Z" fill="#ECF8FD"/>
</svg>
