<svg width="165" height="72" viewBox="0 0 165 72" fill="none" xmlns="http://www.w3.org/2000/svg">
<path d="M29.4959 52.2454C28.5495 52.2454 27.7244 51.6438 27.0086 50.6411C26.5596 50.9006 26.0379 51.0304 25.4312 51.0304C24.2786 51.0304 22.6163 50.2872 21.2331 46.772C18.5395 39.942 18.2847 26.0106 23.4656 21.4809C29.1925 16.4675 41.6291 21.3157 42.1508 21.5163C42.4784 21.646 42.6362 22.0117 42.5027 22.342C42.3692 22.6605 41.9931 22.8256 41.6534 22.6841C41.5321 22.6369 29.4595 17.9302 24.3271 22.4128C19.765 26.3999 19.9227 39.9302 22.4343 46.3119C23.2958 48.506 24.3878 49.7564 25.4191 49.7564C25.7831 49.7564 26.0864 49.6856 26.3412 49.5323C24.7882 46.5242 23.9631 41.5698 23.9631 37.7243C23.9631 35.1409 24.315 32.9468 24.9702 31.3543C25.1886 30.8353 25.4312 30.4106 25.686 30.0449C25.6011 28.0278 25.7831 26.3527 26.4504 25.2557C26.9115 24.5007 27.6759 24.0053 28.6587 23.8165C29.872 23.5806 31.2795 23.8873 32.238 24.5833C34.4948 26.2348 35.8901 31.1538 37.1277 35.4948C37.9285 38.3259 38.9355 41.8529 39.7727 42.2776C40.2581 41.8647 39.3359 38.8803 38.7293 36.8985C37.4674 32.7699 36.0236 28.0868 37.6737 25.5506C38.159 24.7956 38.9841 24.2884 39.8577 24.1822C40.7313 24.076 41.5927 24.371 42.2843 25.0197C46.3489 28.8063 47.1619 39.0336 44.9536 44.4363C43.8859 47.0551 42.2115 48.447 40.1125 48.4706C40.1003 48.4706 40.0882 48.4706 40.0761 48.4706C36.8971 48.4706 35.4048 43.6931 33.8274 38.6326C32.5049 34.3977 31.0125 29.5967 28.7436 29.5967C28.052 29.5967 27.4575 29.8798 26.96 30.4342C27.0814 32.4867 27.4575 34.8932 27.8336 37.276C28.6465 42.4781 29.4109 47.3972 27.9064 49.6856C28.416 50.4878 28.9499 50.936 29.4352 50.936C29.6657 50.936 29.8113 50.877 29.9448 50.7237C30.9397 49.5677 30.0783 44.9435 29.4473 41.5698C28.6829 37.4765 28.2947 35.1173 29.1319 34.2444C29.3867 33.9731 29.7264 33.8551 30.1147 33.8905C31.5343 34.0203 32.1288 36.2143 33.0145 39.5291C34.3006 44.3419 36.0721 50.9242 40.7798 50.9242C43.2186 50.9242 44.9779 49.9333 46.1548 47.8926C50.1103 41.0862 46.0214 24.4181 43.1215 19.7232C42.9395 19.4283 43.0366 19.0391 43.3399 18.8621C43.6432 18.6852 44.0436 18.7795 44.2256 19.0745C46.8949 23.3919 51.7361 40.8385 47.2832 48.5178C45.8636 50.9596 43.6796 52.1864 40.7677 52.1864C35.065 52.1864 33.148 45.0615 31.7405 39.8476C31.2673 38.0899 30.5636 35.4594 30.0297 35.1645C29.69 35.8723 30.2967 39.1516 30.7092 41.3457C31.4857 45.5687 32.2986 49.9215 30.9155 51.5258C30.6121 52.0213 30.1025 52.2454 29.4959 52.2454ZM25.9044 32.6401C25.4798 33.9967 25.2614 35.7425 25.2614 37.7596C25.2614 41.8529 26.1228 45.8047 27.2027 48.3055C27.9185 46.0406 27.227 41.5462 26.596 37.5119C26.3412 35.8251 26.0864 34.1736 25.9044 32.6401ZM28.7921 28.3817C32.0196 28.3817 33.5241 33.2063 35.1136 38.3141C36.424 42.5135 37.9042 47.2674 40.1125 47.2674H40.1246C42.0538 47.2438 43.17 45.498 43.7646 44.0352C45.9971 38.5618 44.7595 29.1248 41.3986 25.987C41.0103 25.5978 40.5371 25.4326 40.0397 25.4798C39.5422 25.5388 39.069 25.8337 38.7899 26.2701C37.4674 28.3227 38.8627 32.8996 39.9911 36.58C41.1317 40.2958 41.9567 42.9736 40.2581 43.528C39.8941 43.646 39.5179 43.6106 39.1782 43.4336C37.9163 42.773 37.1398 40.2604 35.8901 35.8723C34.7617 31.9323 33.3664 27.0251 31.4736 25.6331C30.8063 25.1495 29.7749 24.9254 28.9135 25.0905C28.4888 25.1731 27.9064 25.3854 27.5667 25.9398C27.1542 26.6004 26.9843 27.6267 26.96 28.8653C27.6031 28.4996 28.2461 28.3817 28.7921 28.3817Z" fill="#FFCD02"/>
<path d="M62.6188 33.5838V42.1124C62.6188 42.6197 62.2062 43.0207 61.6845 43.0207C61.1628 43.0207 60.7502 42.6197 60.7502 42.1124V31.4015C60.7502 30.8942 61.1628 30.4932 61.6845 30.4932C62.0606 30.4932 62.2426 30.5993 62.6188 30.965L71.7672 39.9301V31.4015C71.7672 30.8942 72.1798 30.4932 72.7015 30.4932C73.2232 30.4932 73.6357 30.8942 73.6357 31.4015V42.1124C73.6357 42.6197 73.2232 43.0207 72.7015 43.0207C72.3254 43.0207 72.1434 42.9146 71.7672 42.5489L62.6188 33.5838Z" fill="white"/>
<path d="M80.7593 42.1244C80.7593 42.6316 80.3467 43.0327 79.825 43.0327C79.3033 43.0327 78.8907 42.6316 78.8907 42.1244V31.4134C78.8907 30.9062 79.3033 30.5051 79.825 30.5051C80.3467 30.5051 80.7593 30.9062 80.7593 31.4134V42.1244Z" fill="white"/>
<path d="M91.5575 37.1934L87.8811 33.5838V42.1124C87.8811 42.6197 87.4686 43.0207 86.9468 43.0207C86.4251 43.0207 86.0126 42.6197 86.0126 42.1124V31.4015C86.0126 30.8942 86.4251 30.4932 86.9468 30.4932C87.323 30.4932 87.505 30.5993 87.8811 30.965L92.4553 35.483L97.0296 30.965C97.4057 30.5993 97.5877 30.4932 97.9638 30.4932C98.4855 30.4932 98.8981 30.8942 98.8981 31.4015V42.1124C98.8981 42.6197 98.4855 43.0207 97.9638 43.0207C97.4421 43.0207 97.0296 42.6197 97.0296 42.1124V33.5838L93.426 37.1934C93.0499 37.5591 92.8679 37.6653 92.4917 37.6653C92.1277 37.6771 91.9336 37.5591 91.5575 37.1934Z" fill="white"/>
<path d="M112.779 36.5802C113.908 37.1228 114.648 38.2553 114.648 39.4939C114.648 41.3931 113.034 42.9619 111.081 42.9619H104.711C104.189 42.9619 103.776 42.5609 103.776 42.0536V31.4842C103.776 30.977 104.189 30.5759 104.711 30.5759H110.704C112.658 30.5759 114.272 32.1448 114.272 34.044C114.284 35.1175 113.713 36.0258 112.779 36.5802ZM110.498 35.7427C111.542 35.7427 112.415 35.0821 112.415 34.0676C112.415 33.0531 111.554 32.3218 110.498 32.3218H105.657V35.7427H110.498ZM105.657 37.4885V41.2043H110.862C111.918 41.2043 112.779 40.3668 112.779 39.3405C112.779 38.3142 111.918 37.4767 110.862 37.4767H105.657V37.4885Z" fill="white"/>
<path d="M129.085 41.2041C129.607 41.2041 130.019 41.5698 130.019 42.0771C130.019 42.5843 129.607 42.95 129.085 42.95H120.082C119.56 42.95 119.148 42.5489 119.148 42.0417V31.4723C119.148 30.965 119.56 30.564 120.082 30.564H129.085C129.607 30.564 130.019 30.9296 130.019 31.4369C130.019 31.9441 129.607 32.3098 129.085 32.3098H121.028V35.7307H127.216C127.738 35.7307 128.151 36.0964 128.151 36.6036C128.151 37.1109 127.738 37.4765 127.216 37.4765H121.028V41.1923H129.085V41.2041Z" fill="white"/>
<path d="M144.725 41.2041C145.247 41.2041 145.659 41.5698 145.659 42.0771C145.659 42.5843 145.247 42.95 144.725 42.95H135.722C135.2 42.95 134.788 42.5489 134.788 42.0417V31.4723C134.788 30.965 135.2 30.564 135.722 30.564H144.725C145.247 30.564 145.659 30.9296 145.659 31.4369C145.659 31.9441 145.247 32.3098 144.725 32.3098H136.669V35.7307H142.856C143.378 35.7307 143.791 36.0964 143.791 36.6036C143.791 37.1109 143.378 37.4765 142.856 37.4765H136.669V41.1923H144.725V41.2041Z" fill="white"/>
</svg>
