<svg width="24" height="24" viewBox="0 0 24 24" fill="none" xmlns="http://www.w3.org/2000/svg">
<path d="M21.0588 9.206C21.3469 10.1095 21.4957 11.0517 21.5 12C21.5 17.2467 17.2467 21.5 12 21.5C6.75329 21.5 2.5 17.2467 2.5 12C2.5 6.75329 6.75329 2.5 12 2.5C12.9484 2.50428 13.8905 2.65307 14.7941 2.94122" stroke="#ECF8FD" stroke-width="1.5" stroke-linecap="round" stroke-linejoin="round"/>
<path d="M17.8 5.05L19.0011 6.25L21 4.25" stroke="#ECF8FD" stroke-width="1.5" stroke-linecap="round" stroke-linejoin="round"/>
<path d="M14.8095 11.0833H9.40476C8.90507 11.0833 8.5 10.6783 8.5 10.1786V7" stroke="#ECF8FD" stroke-width="1.5" stroke-linecap="round" stroke-linejoin="round"/>
<circle cx="14" cy="16.5" r="1.5" stroke="#ECF8FD" stroke-width="1.5" stroke-linecap="round" stroke-linejoin="round"/>
<path d="M7 7H8.90476C10.3287 7 11.6695 7.6704 12.5238 8.80952L13.6189 10.2697C13.7912 10.4994 14.0147 10.6859 14.2716 10.8144L16.3944 11.8758C17.072 12.2146 17.5 12.9071 17.5 13.6646V15.15C17.5 15.508 17.3578 15.8514 17.1046 16.1046C16.8514 16.3578 16.508 16.5 16.15 16.5H15.5" stroke="#ECF8FD" stroke-width="1.5" stroke-linecap="round" stroke-linejoin="round"/>
<path d="M12.5 16.5H7" stroke="#ECF8FD" stroke-width="1.5" stroke-linecap="round" stroke-linejoin="round"/>
</svg>
