<svg width="24" height="24" viewBox="0 0 24 24" fill="none" xmlns="http://www.w3.org/2000/svg">
<path d="M11.0308 20.0033C6.19138 19.9901 2.22799 16.1538 2.05719 11.3174C1.88639 6.48092 5.56929 2.37456 10.3957 2.02004C15.2222 1.66552 19.4656 5.18966 20.0033 9.99915" stroke="#ECF8FD" stroke-width="1.5" stroke-linecap="round" stroke-linejoin="round"/>
<path fill-rule="evenodd" clip-rule="evenodd" d="M20.0033 21.0037H16.0017C14.8966 21.0037 14.0008 20.1079 14.0008 19.0029V15.0012C14.0008 13.8962 14.8966 13.0004 16.0017 13.0004H20.0033C21.1084 13.0004 22.0042 13.8962 22.0042 15.0012V19.0029C22.0042 20.1079 21.1084 21.0037 20.0033 21.0037Z" stroke="#ECF8FD" stroke-width="1.5" stroke-linecap="round" stroke-linejoin="round"/>
<path d="M19.336 16.3348L17.6704 18.0025L16.6699 17.0021" stroke="#ECF8FD" stroke-width="1.5" stroke-linecap="round" stroke-linejoin="round"/>
<path d="M7.62817 13.8668L11.2857 11.6368V6.98389" stroke="#ECF8FD" stroke-width="1.5" stroke-linecap="round" stroke-linejoin="round"/>
</svg>
