<svg width="24" height="24" viewBox="0 0 24 24" fill="none" xmlns="http://www.w3.org/2000/svg">
<path d="M6.9762 18.5027H15.5015" stroke="#ECF8FD" stroke-width="1.5" stroke-linecap="round" stroke-linejoin="round"/>
<circle cx="17.0021" cy="18.5027" r="1.50063" stroke="#ECF8FD" stroke-width="1.5" stroke-linecap="round" stroke-linejoin="round"/>
<circle cx="5.47548" cy="18.5027" r="1.50063" stroke="#ECF8FD" stroke-width="1.5" stroke-linecap="round" stroke-linejoin="round"/>
<path d="M1.99585 13.8617H14.5011C14.7773 13.8617 15.0013 13.6377 15.0013 13.3615V6.99792C15.0013 5.89289 14.1055 4.99708 13.0004 4.99708H3.99668C2.89165 4.99708 1.99585 5.89289 1.99585 6.99792V17.5023C1.99585 18.0548 2.44375 18.5027 2.99627 18.5027H3.97493" stroke="#ECF8FD" stroke-width="1.5" stroke-linecap="round" stroke-linejoin="round"/>
<path d="M15.0012 6.99792H18.2491C19.302 6.99792 20.2421 7.65729 20.6007 8.64722L21.8845 12.1918C21.9637 12.4102 22.0041 12.6408 22.0041 12.8731V17.0021C22.0041 17.8309 21.3323 18.5027 20.5035 18.5027H18.5027" stroke="#ECF8FD" stroke-width="1.5" stroke-linecap="round" stroke-linejoin="round"/>
<path d="M22.0041 13.0004H19.0029L18.2955 12.293C18.1079 12.1054 17.8534 12 17.5881 12H15.0012" stroke="#ECF8FD" stroke-width="1.5" stroke-linecap="round" stroke-linejoin="round"/>
</svg>
