<svg width="16" height="16" viewBox="0 0 16 16" fill="none" xmlns="http://www.w3.org/2000/svg">
<path fill-rule="evenodd" clip-rule="evenodd" d="M8.01086 13.6804C11.326 13.6804 14.0134 10.993 14.0134 7.67791C14.0134 4.36283 11.326 1.67542 8.01086 1.67542C4.69577 1.67542 2.00836 4.36283 2.00836 7.67791C2.00836 10.993 4.69577 13.6804 8.01086 13.6804ZM10.6682 7.27182C10.9611 6.97901 10.9613 6.50414 10.6685 6.21116C10.3757 5.91818 9.9008 5.91804 9.60782 6.21084L7.468 8.3494L6.39337 7.27799C6.10003 6.98553 5.62516 6.98624 5.33271 7.27958C5.04025 7.57291 5.04096 8.04778 5.3343 8.34023L6.9391 9.94024C7.23206 10.2323 7.7062 10.232 7.9988 9.9396L10.6682 7.27182Z" fill="#ECF8FD"/>
</svg>
