<svg width="16" height="16" viewBox="0 0 16 16" fill="none" xmlns="http://www.w3.org/2000/svg">
<path fill-rule="evenodd" clip-rule="evenodd" d="M4.66675 2C3.56218 2 2.66675 2.89543 2.66675 4V12C2.66675 13.1046 3.56218 14 4.66675 14H11.3334C12.438 14 13.3334 13.1046 13.3334 12V4C13.3334 2.89543 12.438 2 11.3334 2H4.66675ZM7.00008 4.83333H8.55841C9.44667 4.83333 10.1667 5.55341 10.1667 6.44167C10.1667 7.32992 9.44667 8.05 8.55841 8.05H7.50008V8.66667C7.50008 8.94281 7.27622 9.16667 7.00008 9.16667C6.72394 9.16667 6.50008 8.94281 6.50008 8.66667V7.55V5.33333C6.50008 5.05719 6.72394 4.83333 7.00008 4.83333ZM7.50008 7.05H8.55841C8.89439 7.05 9.16675 6.77764 9.16675 6.44167C9.16675 6.10569 8.89439 5.83333 8.55841 5.83333H7.50008V7.05ZM4.83341 11.3333C4.83341 11.0572 5.05727 10.8333 5.33341 10.8333H10.6667C10.9429 10.8333 11.1667 11.0572 11.1667 11.3333C11.1667 11.6095 10.9429 11.8333 10.6667 11.8333H5.33341C5.05727 11.8333 4.83341 11.6095 4.83341 11.3333Z" fill="#ECF8FD"/>
</svg>
