<svg width="16" height="16" viewBox="0 0 16 16" fill="none" xmlns="http://www.w3.org/2000/svg">
<path fill-rule="evenodd" clip-rule="evenodd" d="M14.4587 11.6953L9.35267 2.75932C8.75467 1.71198 7.24534 1.71198 6.64734 2.75932L1.54134 11.6953C0.947338 12.734 1.69734 14.0266 2.894 14.0266H13.106C14.302 14.0266 15.052 12.734 14.4587 11.6953ZM8 5.50336C8.41421 5.50336 8.75 5.83914 8.75 6.25336V8.74669C8.75 9.1609 8.41421 9.49669 8 9.49669C7.58579 9.49669 7.25 9.1609 7.25 8.74669V6.25336C7.25 5.83914 7.58579 5.50336 8 5.50336ZM7.08326 10.9194C7.08104 10.4091 7.495 10 7.99926 10C8.50419 10 8.91659 10.4085 8.91659 10.9167C8.91659 11.4229 8.50614 11.8333 7.99992 11.8333C7.49462 11.8333 7.08473 11.4243 7.08326 10.9194Z" fill="#ECF8FD"/>
</svg>
