<svg width="16" height="16" viewBox="0 0 16 16" fill="none" xmlns="http://www.w3.org/2000/svg">
<path fill-rule="evenodd" clip-rule="evenodd" d="M6.33936 13.0017V13.3431C6.33936 13.7835 6.51436 14.2057 6.82584 14.517C7.13732 14.8282 7.55973 15.0029 8.00005 15.0025C8.44043 15.0027 8.86283 14.8279 9.17429 14.5165C9.48575 14.2052 9.66074 13.7829 9.66074 13.3425V13.0017" fill="#ECF8FD"/>
<path fill-rule="evenodd" clip-rule="evenodd" d="M11.9664 12.0017C12.7226 12.0017 13.3357 11.3886 13.3357 10.6324C13.3354 10.2483 13.1828 9.87992 12.9115 9.608L12.0018 8.69896V5.99916C12.0018 3.7891 10.2102 1.9975 8.00011 1.9975C5.79005 1.9975 3.99844 3.7891 3.99844 5.99916V8.69896L3.08873 9.608C2.81738 9.87992 2.66486 10.2483 2.66455 10.6324C2.66455 10.9956 2.80881 11.3438 3.06559 11.6006C3.32237 11.8574 3.67064 12.0017 4.03379 12.0017H11.9664Z" fill="#ECF8FD"/>
</svg>
