<?xml version="1.0" encoding="UTF-8"?>
<svg width="16" height="16" fill="none" version="1.1" viewBox="0 0 16 16" xmlns="http://www.w3.org/2000/svg">
 <path d="m14.003 8c0 3.3151-2.6874 6.0025-6.0025 6.0025-3.3151 0-6.0025-2.6874-6.0025-6.0025 0-3.3151 2.6874-6.0025 6.0025-6.0025 3.3151 0 6.0025 2.6874 6.0025 6.0025zm-6.4035-4.085c0.41422 0 0.75 0.33578 0.75 0.75v2.9868h2.3513c0.41421 0 0.75 0.33579 0.75 0.75 0 0.41422-0.33579 0.75-0.75 0.75h-3.1013c-0.41421 0-0.75-0.33578-0.75-0.75v-2.1e-4 -2.1e-4 -3.7364c0-0.41422 0.33579-0.75 0.75-0.75z" clip-rule="evenodd" fill="#ecf8fd" fill-rule="evenodd"/>
</svg>
