<svg width="24" height="24" viewBox="0 0 24 24" fill="none" xmlns="http://www.w3.org/2000/svg">
<path fill-rule="evenodd" clip-rule="evenodd" d="M17 18H5C3.895 18 3 17.105 3 16V8C3 6.895 3.895 6 5 6H17C18.105 6 19 6.895 19 8V16C19 17.105 18.105 18 17 18Z" stroke="#ECF8FD" stroke-width="1.5" stroke-linecap="round" stroke-linejoin="round"/>
<path d="M11.3 15L12.8 12H9.20001L10.7 9" stroke="#ECF8FD" stroke-width="1.5" stroke-linecap="round" stroke-linejoin="round"/>
<path d="M19 9H20.014C20.169 9 20.322 9.036 20.461 9.106L20.947 9.349C21.286 9.518 21.5 9.865 21.5 10.243V13.757C21.5 14.136 21.286 14.482 20.947 14.651L20.461 14.894C20.322 14.964 20.169 15 20.014 15H19" stroke="#ECF8FD" stroke-width="1.5" stroke-linecap="round" stroke-linejoin="round"/>
</svg>
