<svg width="24" height="24" viewBox="0 0 24 24" fill="none" xmlns="http://www.w3.org/2000/svg">
<path d="M16.5556 2V2C17.9996 2.00001 19.3844 2.57362 20.4054 3.59465C21.4264 4.61569 22 6.0005 22 7.44446V7.44446" stroke="#ECF8FD" stroke-width="1.5" stroke-linecap="round" stroke-linejoin="round"/>
<path d="M16.5556 5V5C17.2039 5.00001 17.8257 5.25755 18.2841 5.71597C18.7425 6.1744 19 6.79615 19 7.44446V7.44446" stroke="#ECF8FD" stroke-width="1.5" stroke-linecap="round" stroke-linejoin="round"/>
<path d="M12 3H11.5C6.80558 3 3 6.80558 3 11.5V11.5C3 16.7467 7.25329 21 12.5 21V21C14.7543 21 16.9163 20.1045 18.5104 18.5104C20.1045 16.9163 21 14.7543 21 12.5V12" stroke="#ECF8FD" stroke-width="1.5" stroke-linecap="round" stroke-linejoin="round"/>
<path d="M16.5556 2C17.9996 2.00001 19.3844 2.57362 20.4054 3.59465C21.4264 4.61569 22 6.0005 22 7.44446" stroke="#ECF8FD" stroke-width="1.5" stroke-linecap="round" stroke-linejoin="round"/>
<path d="M16.5556 5C17.2039 5.00001 17.8257 5.25755 18.2841 5.71597C18.7425 6.1744 19 6.79615 19 7.44446" stroke="#ECF8FD" stroke-width="1.5" stroke-linecap="round" stroke-linejoin="round"/>
<path d="M12 3H11.5C6.80558 3 3 6.80558 3 11.5V11.5C3 16.7467 7.25329 21 12.5 21V21C14.7543 21 16.9163 20.1045 18.5104 18.5104C20.1045 16.9163 21 14.7543 21 12.5V12" stroke="#ECF8FD" stroke-width="1.5" stroke-linecap="round" stroke-linejoin="round"/>
<path d="M7.5 16C7.89691 15.0894 8.7956 14.5005 9.78894 14.5H14.2111C15.2044 14.5005 16.1031 15.0894 16.5 16" stroke="#ECF8FD" stroke-width="1.5" stroke-linecap="round" stroke-linejoin="round"/>
<circle cx="12" cy="9.5" r="2.5" stroke="#ECF8FD" stroke-width="1.5" stroke-linecap="round" stroke-linejoin="round"/>
</svg>
